<svg xmlns="http://www.w3.org/2000/svg" viewBox="0 0 32 32">
  <defs>
    <linearGradient id="grad" x1="0%" y1="0%" x2="100%" y2="100%">
      <stop offset="0%" stop-color="#0d9488"/>
      <stop offset="100%" stop-color="#1d4ed8"/>
    </linearGradient>
  </defs>
  <!-- Background -->
  <rect width="32" height="32" rx="7" fill="url(#grad)"/>
  <!-- Kidney outline -->
  <path d="M16 7c-3 0-4.8 1.7-4.8 3.8 0 1.5.9 2.6.9 3.9s-1 2.6-1 4.3c0 3 2.2 5.2 4.9 5.2s4.9-2.2 4.9-5.2c0-1.7-1-2.9-1-4.3s.9-2.4.9-3.9C20.8 8.7 19 7 16 7z" fill="none" stroke="white" stroke-width="1.2" opacity="0.9"/>
  <!-- Tracker crosshair/reticle -->
  <circle cx="16" cy="16" r="5.5" fill="none" stroke="white" stroke-width="0.8" stroke-dasharray="2 1.5" opacity="0.7"/>
  <circle cx="16" cy="16" r="2" fill="white" opacity="0.9"/>
  <!-- Crosshair lines -->
  <line x1="16" y1="9" x2="16" y2="12" stroke="white" stroke-width="0.7" opacity="0.6"/>
  <line x1="16" y1="20" x2="16" y2="23" stroke="white" stroke-width="0.7" opacity="0.6"/>
  <line x1="9" y1="16" x2="12" y2="16" stroke="white" stroke-width="0.7" opacity="0.6"/>
  <line x1="20" y1="16" x2="23" y2="16" stroke="white" stroke-width="0.7" opacity="0.6"/>
</svg>
